<svg xmlns="http://www.w3.org/2000/svg" xmlns:xlink="http://www.w3.org/1999/xlink" version="1.1" x="0px" y="0px" viewBox="0 0 100 125" enable-background="new 0 0 100 100" xml:space="preserve"><g><g><path fill="#000000" d="M50,83.659c-0.945,0-1.709-0.766-1.709-1.708c0-4.368-4.626-5.313-4.823-5.351l-36.76-5.87    c-0.83-0.132-1.44-0.847-1.44-1.687V13.941c0-0.499,0.218-0.972,0.597-1.297c0.378-0.325,0.878-0.469,1.371-0.392l32.035,4.912    c12.091,2.164,12.438,7.853,12.438,8.495v56.292C51.709,82.894,50.943,83.659,50,83.659z M8.686,67.585l35.378,5.649    c1.174,0.227,2.785,0.83,4.228,1.916V25.659c0,0,0,0,0,0c-0.008,0-0.501-3.5-9.578-5.124L8.686,15.932V67.585z"/></g><g><path fill="#000000" d="M50,87.768h-4.569c-0.943,0-1.709-0.766-1.709-1.709c0-3.855-6.556-3.985-6.621-3.985    c-0.073-0.002-0.146-0.008-0.217-0.018l-35.41-4.913C0.629,77.026,0,76.304,0,75.452V19.067c0-0.944,0.766-1.709,1.709-1.709    c0.942,0,1.708,0.765,1.708,1.709v54.895l33.829,4.694c3.114,0.059,8.548,1.352,9.682,5.693H50c0.943,0,1.709,0.766,1.709,1.709    S50.943,87.768,50,87.768z"/></g><g><path fill="#000000" d="M50,83.659c-0.945,0-1.709-0.766-1.709-1.708V25.659c0-0.642,0.348-6.331,12.395-8.488l32.079-4.918    c0.491-0.076,0.993,0.067,1.371,0.392c0.379,0.325,0.597,0.798,0.597,1.297v55.103c0,0.84-0.61,1.555-1.44,1.687l-36.816,5.88    c-0.133,0.027-4.767,1.023-4.767,5.341C51.709,82.894,50.943,83.659,50,83.659z M91.314,15.932l-30.07,4.61    c-9.088,1.627-9.535,5.157-9.537,5.192l0.002,49.412c1.43-1.082,3.024-1.68,4.173-1.902l35.433-5.659V15.932z"/></g><g><path fill="#000000" d="M54.569,87.768H50c-0.945,0-1.709-0.766-1.709-1.709S49.055,84.35,50,84.35h3.072    c1.132-4.342,6.565-5.635,9.68-5.693l33.831-4.694V19.067c0-0.944,0.766-1.709,1.708-1.709c0.943,0,1.709,0.765,1.709,1.709    v56.385c0,0.852-0.629,1.574-1.474,1.69l-35.41,4.913c-0.072,0.01-0.146,0.016-0.219,0.018c-0.065,0-6.619,0.13-6.619,3.985    C56.278,87.002,55.513,87.768,54.569,87.768z"/></g></g><text x="0" y="115" fill="#000000" font-size="5px" font-weight="bold" font-family="'Helvetica Neue', Helvetica, Arial-Unicode, Arial, Sans-serif">Created by David Marioni</text><text x="0" y="120" fill="#000000" font-size="5px" font-weight="bold" font-family="'Helvetica Neue', Helvetica, Arial-Unicode, Arial, Sans-serif">from the Noun Project</text></svg>